<svg width="16" height="16" viewBox="0 0 16 16" fill="none" xmlns="http://www.w3.org/2000/svg">
  <path
    d="M11.4775 5.33587C10.9029 5.50645 10.4698 5.89228 10.1525 6.31141C10.0844 6.40138 9.94246 6.33377 9.9695 6.22353C10.5769 3.72592 9.77449 1.65004 7.2732 0.628215C7.14633 0.576214 7.01424 0.690097 7.04752 0.82322C8.18532 5.39152 3.3996 5.00619 4.00438 10.185C4.01478 10.2739 3.91494 10.3347 3.84213 10.2827C3.6154 10.12 3.36216 9.78041 3.18847 9.54171C3.13751 9.47153 3.02727 9.49129 3.00387 9.575C2.86554 10.0753 2.80002 10.5464 2.80002 11.0144C2.80002 12.8344 3.73553 14.4366 5.15153 15.3653C5.23266 15.4184 5.33667 15.3424 5.3091 15.2494C5.2363 15.005 5.19521 14.747 5.19209 14.4803C5.19209 14.3165 5.20249 14.149 5.22798 13.993C5.28726 13.6009 5.42351 13.2276 5.65231 12.8875C6.43701 11.7097 8.01006 10.5719 7.7589 9.02691C7.74278 8.92914 7.85823 8.86468 7.93104 8.93175C9.03919 9.94421 9.25865 11.3061 9.07663 12.5276C9.06103 12.6337 9.19416 12.6904 9.26125 12.6072C9.43076 12.395 9.63774 12.2089 9.86289 12.069C9.91906 12.0341 9.99394 12.0607 10.0153 12.1231C10.1406 12.4876 10.3268 12.8298 10.5025 13.1719C10.7126 13.5832 10.8244 14.0528 10.8067 14.55C10.7979 14.7918 10.7578 15.0258 10.6908 15.2483C10.6622 15.3424 10.7651 15.421 10.8478 15.3669C12.2648 14.4382 13.2009 12.836 13.2009 11.0149C13.2009 10.3821 13.0901 9.76169 12.8806 9.18033C12.4411 7.96089 11.3262 7.04515 11.6081 5.456C11.6216 5.38008 11.5514 5.31403 11.4775 5.33587Z"
    fill="#FA5D19"
  />
</svg>





