<svg width="16" height="16" viewBox="0 0 16 16" fill="none" xmlns="http://www.w3.org/2000/svg">
<g clip-path="url(#clip0_461_791)">
<path d="M8.14753 4.31326C8.54246 4.31326 8.91504 4.38023 9.26533 4.51415C9.61903 4.64808 9.92808 4.83352 10.1925 5.07046C10.4569 5.30742 10.6578 5.58215 10.7952 5.89465C10.8261 5.96333 10.8416 6.03373 10.8416 6.10585C10.8416 6.24664 10.79 6.36855 10.687 6.47158C10.5874 6.57116 10.4672 6.62096 10.3265 6.62096C10.2337 6.62096 10.141 6.59176 10.0483 6.53338C9.95558 6.47158 9.89032 6.39773 9.85255 6.31188C9.72205 6.01656 9.504 5.78133 9.19836 5.60618C8.89616 5.43104 8.54587 5.34348 8.14753 5.34348C7.95179 5.34348 7.74403 5.36751 7.52424 5.4156C7.3079 5.46366 7.10357 5.53751 6.91126 5.63709C6.71896 5.73324 6.5627 5.85515 6.44252 6.00282C6.32232 6.15047 6.26223 6.3222 6.26223 6.51793C6.26223 6.6759 6.31374 6.81325 6.41676 6.93001C6.51979 7.04334 6.63482 7.13263 6.76188 7.19787C7.06066 7.34554 7.39033 7.44856 7.75089 7.50694C8.11491 7.56532 8.48234 7.62197 8.85322 7.67694C9.22412 7.73188 9.56923 7.82803 9.88861 7.96538C10.0912 8.05123 10.2852 8.16972 10.4707 8.32081C10.6561 8.47192 10.8072 8.65563 10.924 8.87198C11.0407 9.08833 11.0991 9.34244 11.0991 9.63435C11.0991 10.0121 11.0081 10.3435 10.8261 10.6285C10.6441 10.9135 10.4054 11.1505 10.1101 11.3393C9.81476 11.5282 9.49368 11.6707 9.14683 11.7669C8.80343 11.8596 8.4669 11.906 8.13723 11.906C7.6908 11.906 7.27184 11.8356 6.88037 11.6948C6.48888 11.5505 6.14718 11.3479 5.8553 11.087C5.5634 10.8225 5.34019 10.5135 5.18564 10.1597C5.15473 10.0911 5.13929 10.0224 5.13929 9.95372C5.13929 9.81291 5.18908 9.69273 5.28867 9.59314C5.39169 9.49011 5.5136 9.43861 5.6544 9.43861C5.75054 9.43861 5.84498 9.4695 5.93771 9.53132C6.03042 9.5897 6.09395 9.66352 6.1283 9.75282C6.27941 10.0997 6.53523 10.3744 6.89581 10.577C7.25639 10.7762 7.67018 10.8758 8.13723 10.8758C8.42913 10.8758 8.72274 10.8328 9.01807 10.747C9.31339 10.6577 9.56065 10.5221 9.75982 10.34C9.96243 10.1546 10.0637 9.91937 10.0637 9.63435C10.0637 9.45235 10.0019 9.30297 9.87829 9.1862C9.75811 9.066 9.62591 8.975 9.48167 8.91318C9.15542 8.77239 8.80687 8.67624 8.43599 8.62472C8.06511 8.56978 7.69595 8.51313 7.32851 8.45475C6.96105 8.39293 6.61764 8.28131 6.29829 8.11993C6.027 7.98255 5.77974 7.78338 5.55652 7.52239C5.33675 7.25798 5.22685 6.92316 5.22685 6.51793C5.22685 6.16079 5.3127 5.84656 5.4844 5.57527C5.65954 5.30055 5.88963 5.07046 6.17465 4.88502C6.46312 4.69615 6.77905 4.55364 7.12246 4.4575C7.46586 4.36133 7.80756 4.31326 8.14753 4.31326Z" fill="#90CDF4"/>
<path d="M14.1187 8C14.1187 4.62075 11.3793 1.88132 8 1.88132C4.62075 1.88132 1.88132 4.62075 1.88132 8C1.88132 11.3793 4.62075 14.1187 8 14.1187C11.3793 14.1187 14.1187 11.3793 14.1187 8ZM15.3846 8C15.3846 12.0784 12.0784 15.3846 8 15.3846C3.92159 15.3846 0.615387 12.0784 0.615387 8C0.615387 3.92159 3.92159 0.615387 8 0.615387C12.0784 0.615387 15.3846 3.92159 15.3846 8Z" fill="#90CDF4"/>
</g>
<defs>
<clipPath id="clip0_461_791">
<rect width="16" height="16" fill="white"/>
</clipPath>
</defs>
</svg>
